<?xml version="1.0" encoding="utf-8"?>
<!-- Generator: Adobe Illustrator 24.0.2, SVG Export Plug-In . SVG Version: 6.00 Build 0)  -->
<svg version="1.1" id="Layer_1" xmlns="http://www.w3.org/2000/svg" xmlns:xlink="http://www.w3.org/1999/xlink" x="0px" y="0px"
	 viewBox="0 0 103.5 30.9" style="enable-background:new 0 0 103.5 30.9;" xml:space="preserve">
<style type="text/css">
	.st0{fill:#333333;}
	.st1{fill:#4777F3;}
</style>
<g>
	<path class="st0" d="M102.7,22.8c-0.7,4.8-3.7,7.6-8.5,7.8c-6,0.3-9.7-2.1-10.8-7c-0.6-2.9-0.4-5.8,0.8-8.5
		c1.7-3.9,5.6-5.7,10.6-5.1c4.1,0.5,7.1,3.5,7.8,7.9c0,0,0,0,0,0c0.3,1.5,0.3,3.1,0.1,4.7C102.7,22.7,102.7,22.8,102.7,22.8z
		 M89.1,20.6c0,2.8,1.5,4.5,3.9,4.5c2.4,0,3.9-1.8,3.8-4.8c-0.1-2.9-1.5-4.5-3.9-4.5C90.5,15.8,89.1,17.6,89.1,20.6z"/>
	<path class="st1" d="M50,0.7c2.4-0.3,4.8,0.3,6.7,1.8c0.1,0.1,0.3,0.2,0.4,0.3C58.5,4,58.4,5.1,56.8,6c-0.8,0.4-1.6,0.6-2.5,0.8
		c-3.6,1-7.3,2-10.9,3c-3.8,1.1-7.1,0.6-9.8-2.6c-1.6-1.9-1.5-3,1.1-3.6c3.2-0.8,6.4-1.3,9.6-2C45.3,1.4,48,1,50,0.7z"/>
	<path class="st1" d="M39.2,30.7c-1.7,0.3-3.4-0.3-4.6-1.4c-0.6-0.6-1.2-1.2-1.8-1.7c-1.2-1.2-1-2.2,0.5-2.9
		c0.6-0.3,1.2-0.5,1.9-0.6c4.5-0.9,9-1.8,13.4-2.6c3-0.5,5.8-0.1,8.1,2.1c1.4,1.3,1.4,2.3-0.4,3.2c-1.2,0.6-2.6,0.9-3.9,1.3
		C49.9,28.8,42.9,30.1,39.2,30.7z"/>
	<path class="st1" d="M50,10.9c3.4-0.1,5.3,0.9,7,2.3c1.3,1.1,1.1,2.1-0.2,3c-0.8,0.5-1.7,0.8-2.6,1c-3.7,1.1-7.4,2-11.1,3.1
		c-4,1.2-7.3,0.3-9.9-2.9c-1.3-1.6-1.2-2.6,0.8-3.2c2.6-0.8,5.2-1.2,7.9-1.7C44.9,11.8,48,11.3,50,10.9z"/>
</g>
<g>
	<path class="st0" d="M4.5,0.1c0.5,0,0.9,0.3,1.1,0.8c0.2,0.7,0.5,1.4,0.5,2.1c0.1,4,0,7.9,0,11.9c0.3,0.1,0.3,0.1,0.6,0.2
		c1.5-1.5,2.9-3.1,4.4-4.6c1.2-1.2,3.3-1.3,4.5-0.1c1.7,1.5,0.7,2.6-0.5,3.6c-1.4,1.2-2.8,2.4-4.3,3.7c1.8,2.9,3.4,5.4,5,7.8
		c0.2,0.3,0.7,0.5,1.1,0.6c1.4,0.1,1.7,1,1.4,2c-0.2,0.7-0.9,1.7-1.6,1.9c-3.2,1-4.6,0.3-6.3-2.4c-1.1-1.7-2.2-3.5-3.5-5.6
		c-0.4,0.8-0.7,1.2-0.7,1.6c-0.1,1.2,0,2.4,0,3.5c0,2.6-2.5,4.1-4.9,2.8c-0.4-0.2-0.7-0.9-0.7-1.4c0-9,0-18,0-27c0,0,0,0,0,0
		c0-0.8,0.8-1.4,1.6-1.4L4.5,0.1z"/>
	<path class="st0" d="M24.7,0.1c0.8,0,1.6,0.6,1.7,1.4c0.1,0.4,0.1,0.9,0.1,1.3c0,7.6,0,15.4,0,23h1.7c0.5,1,0.3,1.7,0.4,2.7
		c0.1,1.8-1.7,1.8-2.9,2c-3.1,0.4-4.6-1-4.6-4.1c0-7.9,0-15.7,0-23.6c0-0.4,0.1-0.8,0.1-1.1c0.2-0.9,1-1.6,2-1.6L24.7,0.1z"/>
</g>
<path class="st0" d="M79.5,0.8c0.3,0.9,0.2,1.5,0.2,2.4c0,6.7,0,13.3,0,20c0,2.5-0.3,2.8,1.2,2.8c2.2,0,2.2,4.4-0.2,4.6
	c-1.2,0.1-3.2,0.4-3.9-0.5c-2-2.1-2.5,0.1-4.4,0.3c-8.3,0.7-12.9-5.2-11-12.9c1.1-4.7,4.4-7.6,9.3-7.7c2.5-0.1,2.9-1,2.8-3.2
	c-0.1-2-0.4-3.5,0.1-5.5C73.8,0.6,74.2,0,74.4,0c1.5,0,2.6,0,4.1,0C79.3,0,79.5,0.6,79.5,0.8z M73.5,19.9c0-0.8,0-1.6,0-2.4
	c-0.1-2.2-1-2.8-3.1-2.3c-1.7,0.4-2.6,1.6-2.9,3.2c-0.2,1.1-0.2,2.2-0.1,3.3c0.1,2.4,1,3.3,3.1,3.2c2.4-0.1,2.9-0.6,2.9-3.2
	C73.5,21.1,73.5,20.5,73.5,19.9z"/>
</svg>
