<?xml version="1.0" encoding="utf-8"?>
<!-- Generator: Adobe Illustrator 22.1.0, SVG Export Plug-In . SVG Version: 6.00 Build 0)  -->
<svg version="1.1" id="Layer_1" xmlns="http://www.w3.org/2000/svg" xmlns:xlink="http://www.w3.org/1999/xlink" x="0px" y="0px"
	 viewBox="0 0 147 123" style="enable-background:new 0 0 147 123;" xml:space="preserve">
<style type="text/css">
	.st0{fill:#ffff;}
	.st1{fill:#ffff;}
	.st2{fill:#9e95fc;}
</style>
<title>File_2</title>
<desc>Created with Sketch.</desc>
<g id="Page-1">
	<g id="File_2">
		<path id="Shape" class="st0" d="M118,16.5H76.5V0.8h54.4c0.1,0,0.2,0,0.3,0c8.5,0.2,15.4,7.2,15.4,15.7h-18"/>
		<path id="Shape_1_" class="st1" d="M132.4,0.8c-3.2,0.2-6.2,1.5-8.3,3.7c-0.2,0.2-0.4,0.4-0.6,0.7c-1.9,2.2-3.3,5.1-3.3,8.2v93.4
			c0,8.7-7,15.7-15.7,15.7H28.2V12.7c0.2-3.2,1.4-6.1,3.5-8.2c2.3-2.3,5.4-3.7,8.9-3.7h76.9l0,0h14.6C132.1,0.8,132.2,0.8,132.4,0.8
			z"/>
		<path id="Shape_2_" class="st2" d="M105,22.2H82.3c-0.8,0-1.5-0.7-1.5-1.5c0-0.8,0.7-1.5,1.5-1.5H105c0.8,0,1.5,0.7,1.5,1.5
			C106.5,21.5,105.9,22.2,105,22.2z"/>
		<path id="Shape_3_" class="st2" d="M71.6,22.2H42c-0.8,0-1.5-0.7-1.5-1.5c0-0.8,0.7-1.5,1.5-1.5h29.7c0.8,0,1.5,0.7,1.5,1.5
			C73.2,21.5,72.5,22.2,71.6,22.2z"/>
		<path id="Shape_4_" class="st2" d="M90.6,37H61.1c-0.8,0-1.5-0.7-1.5-1.5s0.7-1.5,1.5-1.5h29.5c0.8,0,1.5,0.7,1.5,1.5
			S91.5,37,90.6,37z"/>
		<path id="Shape_5_" class="st0" d="M51.6,37H42c-0.8,0-1.5-0.7-1.5-1.5S41.2,34,42,34h9.6c0.8,0,1.5,0.7,1.5,1.5S52.4,37,51.6,37z
			"/>
		<path id="Shape_6_" class="st0" d="M107.1,48H89c-0.8,0-1.5-0.7-1.5-1.5S88.2,45,89,45h18.1c0.8,0,1.5,0.7,1.5,1.5
			S108,48,107.1,48z"/>
		<path id="Shape_8_" class="st2" d="M113.5,66.6h-9.9c-0.8,0-1.5-0.7-1.5-1.5c0-0.8,0.7-1.5,1.5-1.5h9.9c0.8,0,1.5,0.7,1.5,1.5
			C115,65.9,114.4,66.6,113.5,66.6z"/>
		<path id="Shape_7_" class="st2" d="M44.5,49.5h-9.9c-0.8,0-1.5-0.7-1.5-1.5c0-0.8,0.7-1.5,1.5-1.5h9.9c0.8,0,1.5,0.7,1.5,1.5
			C46,48.8,45.5,49.5,44.5,49.5z"/>
		<path id="Shape_9_" class="st0" d="M44.5,66.6h-5.3c-0.8,0-1.5-0.7-1.5-1.5c0-0.8,0.7-1.5,1.5-1.5h5.4c0.8,0,1.5,0.7,1.5,1.5
			C46,65.9,45.4,66.6,44.5,66.6z"/>
		<path id="Shape_10_" class="st2" d="M107.5,85.5H93.6c-0.8,0-1.5-0.7-1.5-1.5c0-0.8,0.7-1.5,1.5-1.5h13.9c0.8,0,1.5,0.7,1.5,1.5
			C109,84.8,108.4,85.5,107.5,85.5z"/>
		<path id="Shape_11_" class="st0" d="M82.1,86.4H58.8c-0.8,0-1.5-0.7-1.5-1.5c0-0.8,0.7-1.5,1.5-1.5h23.3c0.8,0,1.5,0.7,1.5,1.5
			C83.6,85.7,82.9,86.4,82.1,86.4z"/>
		<path id="Shape_12_" class="st2" d="M50.1,81.4H42c-0.8,0-1.5-0.7-1.5-1.5c0-0.8,0.7-1.5,1.5-1.5h8.1c0.8,0,1.5,0.7,1.5,1.5
			C51.6,80.7,50.9,81.4,50.1,81.4z"/>
		<path id="Shape_13_" class="st2" d="M90.6,96.2H76.8c-0.8,0-1.5-0.7-1.5-1.5c0-0.8,0.7-1.5,1.5-1.5h13.8c0.8,0,1.5,0.7,1.5,1.5
			C92.1,95.5,91.5,96.2,90.6,96.2z"/>
		<path id="Shape_14_" class="st0" d="M67.7,96.2H42c-0.8,0-1.5-0.7-1.5-1.5c0-0.8,0.7-1.5,1.5-1.5h25.7c0.8,0,1.5,0.7,1.5,1.5
			C69.2,95.5,68.5,96.2,67.7,96.2z"/>
		<path id="Shape_15_" class="st0" d="M70.9,110.1h20.2c0,3.4,1.4,6.5,3.6,8.7c2.2,2.3,5.3,3.6,8.7,3.6H12.5c-3.4,0-6.5-1.4-8.7-3.6
			c-2.2-2.2-3.6-5.3-3.6-8.7H60C60,110.1,71.1,110.2,70.9,110.1z"/>
	</g>
</g>
<g>
	<path class="st2" d="M53.5,72.7c-1.6,0-2.4-0.8-2.4-2.5V48.1c0-1.6,0.8-2.5,2.5-2.5h9.2c2.9,0,5.2,0.7,6.8,2.1
		c1.6,1.4,2.4,3.4,2.4,5.9c0,2-0.5,3.7-1.6,5c-1,1.3-2.5,2.2-4.5,2.6c1.3,0.4,2.4,1.4,3.2,2.9l2.9,5.3c0.4,0.8,0.5,1.6,0.2,2.2
		c-0.3,0.7-0.9,1-2,1c-0.7,0-1.2-0.1-1.7-0.4c-0.4-0.3-0.8-0.7-1.1-1.4l-3.8-7.1c-0.5-0.9-1-1.4-1.6-1.7c-0.6-0.3-1.4-0.4-2.4-0.4
		H56v8.5C56,71.9,55.1,72.7,53.5,72.7z M56,58.1h5.9c3.6,0,5.3-1.4,5.3-4.3c0-2.9-1.8-4.3-5.3-4.3H56V58.1z"/>
	<path class="st2" d="M79.1,79.6c-1.6,0-2.4-0.8-2.4-2.4V55.9c0-1.6,0.8-2.4,2.3-2.4c1.6,0,2.4,0.8,2.4,2.4v0.8
		c0.5-1,1.3-1.8,2.4-2.4c1.1-0.6,2.3-0.9,3.7-0.9c1.6,0,3.1,0.4,4.3,1.2c1.2,0.8,2.2,1.9,2.9,3.3c0.7,1.4,1,3.2,1,5.2
		c0,2-0.3,3.7-1,5.2c-0.7,1.5-1.6,2.6-2.9,3.4c-1.2,0.8-2.7,1.2-4.3,1.2c-1.3,0-2.5-0.3-3.6-0.9s-1.9-1.3-2.4-2.3v7.5
		C81.5,78.8,80.7,79.6,79.1,79.6z M86.1,69.2c1.4,0,2.6-0.5,3.4-1.5c0.9-1,1.3-2.5,1.3-4.5c0-2-0.4-3.5-1.3-4.5
		c-0.9-1-2-1.5-3.4-1.5s-2.6,0.5-3.4,1.5c-0.9,1-1.3,2.5-1.3,4.5c0,2,0.4,3.5,1.3,4.5C83.6,68.7,84.7,69.2,86.1,69.2z"/>
</g>
</svg>
